{
	"asset":{
		"generator":"Khronos glTF Blender I/O v4.5.48",
		"version":"2.0"
	},
	"scene":0,
	"scenes":[
		{
			"name":"Scene",
			"nodes":[
				0
			]
		}
	],
	"nodes":[
		{
			"mesh":0,
			"name":"Sphere",
			"translation":[
				0,
				1.3740565776824951,
				0
			]
		}
	],
	"materials":[
		{
			"doubleSided":true,
			"name":"Material",
			"pbrMetallicRoughness":{
				"baseColorTexture":{
					"index":0
				},
				"metallicFactor":0,
				"metallicRoughnessTexture":{
					"index":1
				}
			}
		}
	],
	"meshes":[
		{
			"name":"Sphere",
			"primitives":[
				{
					"attributes":{
						"POSITION":0,
						"NORMAL":1,
						"TEXCOORD_0":2
					},
					"indices":3,
					"material":0
				}
			]
		}
	],
	"textures":[
		{
			"sampler":0,
			"source":0
		},
		{
			"sampler":0,
			"source":1
		}
	],
	"images":[
		{
			"mimeType":"image/png",
			"name":"bake",
			"uri":"bake.png"
		},
		{
			"mimeType":"image/png",
			"name":"bakerough",
	"uri": "bakerough.png"
		}
	],
	"accessors":[
		{
			"bufferView":0,
			"componentType":5126,
			"count":8249,
			"max":[
				1.1330255270004272,
				1.1522849798202515,
				1.2149219512939453
			],
			"min":[
				-1.1842278242111206,
				-1.2159017324447632,
				-1.1308823823928833
			],
			"type":"VEC3"
		},
		{
			"bufferView":1,
			"componentType":5126,
			"count":8249,
			"type":"VEC3"
		},
		{
			"bufferView":2,
			"componentType":5126,
			"count":8249,
			"type":"VEC2"
		},
		{
			"bufferView":3,
			"componentType":5123,
			"count":47616,
			"type":"SCALAR"
		}
	],
	"bufferViews":[
		{
			"buffer":0,
			"byteLength":98988,
			"byteOffset":0,
			"target":34962
		},
		{
			"buffer":0,
			"byteLength":98988,
			"byteOffset":98988,
			"target":34962
		},
		{
			"buffer":0,
			"byteLength":65992,
			"byteOffset":197976,
			"target":34962
		},
		{
			"buffer":0,
			"byteLength":95232,
			"byteOffset":263968,
			"target":34963
		}
	],
	"samplers":[
		{
			"magFilter":9729,
			"minFilter":9987
		}
	],
	"buffers":[
		{
			"byteLength":359200,
			"uri":"drun.bin"
		}
	]
}
